<?xml version="1.0" encoding="utf-8"?>
<svg xmlns="http://www.w3.org/2000/svg"
	xmlns:xlink="http://www.w3.org/1999/xlink"
	width="41px" height="35px" viewBox="0 0 41 35">
<path fillRule="evenodd" d="M 36.95 34.53C 36.95 34.53 4.67 34.53 4.67 34.53 3.18 34.53 0.63 33.33 0.63 31.84 0.63 30.36 1.83 29.15 3.32 29.15 3.32 29.15 38.3 29.15 38.3 29.15 39.79 29.15 40.99 30.36 40.99 31.84 40.99 33.33 38.44 34.53 36.95 34.53ZM 24.85 31.84C 24.85 31.84 16.77 31.84 16.77 31.84 16.03 31.84 15.43 32.14 15.43 32.52 15.43 32.89 16.03 33.19 16.77 33.19 16.77 33.19 24.85 33.19 24.85 33.19 25.59 33.19 26.19 32.89 26.19 32.52 26.19 32.14 25.59 31.84 24.85 31.84ZM 15.56 14.78C 15.56 14.78 18.05 17.28 18.05 17.28 18.05 17.28 26.05 9.24 26.05 9.24 26.57 8.71 27.42 8.71 27.94 9.24 27.94 9.24 29.84 11.14 29.84 11.14 30.36 11.66 30.36 12.52 29.84 13.04 29.84 13.04 19.42 23.51 19.42 23.51 18.97 23.96 18.3 24 17.78 23.67 17.34 23.78 16.86 23.69 16.51 23.34 16.51 23.34 11.78 18.59 11.78 18.59 11.25 18.06 11.25 17.21 11.78 16.68 11.78 16.68 13.67 14.78 13.67 14.78 14.19 14.26 15.04 14.26 15.56 14.78ZM 34.26 4.94C 34.26 4.94 7.36 4.94 7.36 4.94 7.36 4.94 7.36 26.46 7.36 26.46 7.36 26.46 3.32 26.46 3.32 26.46 3.32 26.46 3.32 23.77 3.32 23.77 3.32 23.77 3.57 23.77 3.57 23.77 3.42 23.35 3.32 22.9 3.32 22.43 3.32 22.43 3.32 4.94 3.32 4.94 3.32 2.71 5.13 0.9 7.36 0.9 7.36 0.9 34.26 0.9 34.26 0.9 36.49 0.9 38.3 2.71 38.3 4.94 38.3 4.94 38.3 22.43 38.3 22.43 38.3 22.9 38.2 23.35 38.05 23.77 38.05 23.77 38.3 23.77 38.3 23.77 38.3 23.77 38.3 26.46 38.3 26.46 38.3 26.46 34.26 26.46 34.26 26.46 34.26 26.46 34.26 4.94 34.26 4.94Z" fill="rgb(253,209,53)"/></svg>