<?xml version="1.0" encoding="utf-8"?>
<svg xmlns="http://www.w3.org/2000/svg"
	xmlns:xlink="http://www.w3.org/1999/xlink"
	width="29px" height="38px" viewBox="0 0 29 38">
<path fillRule="evenodd" d="M 25.18 37.97C 25.18 37.97 4.19 37.97 4.19 37.97 2.25 37.97 0.69 36.4 0.69 34.46 0.69 34.46 0.69 21.63 0.69 21.63 0.69 19.7 2.25 18.13 4.19 18.13 4.19 18.13 5.35 18.13 5.35 18.13 5.35 18.13 5.35 8.8 5.35 8.8 5.35 4.29 9.53 0.63 14.68 0.63 19.84 0.63 24.02 4.29 24.02 8.8 24.02 8.8 24.02 18.13 24.02 18.13 24.02 18.13 25.18 18.13 25.18 18.13 27.12 18.13 28.68 19.7 28.68 21.63 28.68 21.63 28.68 34.46 28.68 34.46 28.68 36.4 27.12 37.97 25.18 37.97ZM 19.35 8.8C 19.35 6.87 17.26 5.3 14.68 5.3 12.11 5.3 10.02 6.87 10.02 8.8 10.02 8.8 10.02 16.97 10.02 16.97 10.02 17.38 10.13 17.77 10.3 18.13 10.3 18.13 19.07 18.13 19.07 18.13 19.24 17.77 19.35 17.38 19.35 16.97 19.35 16.97 19.35 8.8 19.35 8.8ZM 14.68 21.63C 12.11 21.63 10.02 23.72 10.02 26.3 10.02 28.02 10.96 29.51 12.35 30.32 12.35 30.32 12.35 32.13 12.35 32.13 12.35 33.42 13.4 34.46 14.68 34.46 15.97 34.46 17.02 33.42 17.02 32.13 17.02 32.13 17.02 30.32 17.02 30.32 18.41 29.51 19.35 28.02 19.35 26.3 19.35 23.72 17.26 21.63 14.68 21.63Z" fill="rgb(253,209,53)"/></svg>