<?xml version="1.0" encoding="utf-8"?>
<svg xmlns="http://www.w3.org/2000/svg"
	xmlns:xlink="http://www.w3.org/1999/xlink"
	width="40px" height="39px" viewBox="0 0 40 39">
<path fillRule="evenodd" d="M 35.86 16.33C 35.86 16.33 4.2 16.33 4.2 16.33 2.3 16.33 0.75 14.79 0.75 12.89 0.75 10.99 2.3 9.45 4.2 9.45 4.2 9.45 8.09 9.45 8.09 9.45 8.15 9.23 8.23 9.01 8.35 8.8 8.35 8.8 12.48 1.65 12.48 1.65 13.24 0.33 14.93-0.12 16.24 0.64 17.56 1.4 18.01 3.09 17.25 4.4 17.25 4.4 14.34 9.45 14.34 9.45 14.34 9.45 25.72 9.45 25.72 9.45 25.72 9.45 22.81 4.4 22.81 4.4 22.05 3.09 22.5 1.4 23.81 0.64 25.13-0.12 26.81 0.33 27.58 1.65 27.58 1.65 31.71 8.8 31.71 8.8 31.82 9.01 31.9 9.23 31.97 9.45 31.97 9.45 35.86 9.45 35.86 9.45 37.76 9.45 39.3 10.99 39.3 12.89 39.3 14.79 37.76 16.33 35.86 16.33ZM 35.28 38.36C 35.28 38.36 4.78 38.36 4.78 38.36 4.78 38.36 3.59 17.71 3.59 17.71 3.59 17.71 36.47 17.71 36.47 17.71 36.47 17.71 35.28 38.36 35.28 38.36ZM 13.14 24.59C 13.14 23.83 12.53 23.21 11.77 23.21 11.01 23.21 10.39 23.83 10.39 24.59 10.39 24.59 10.39 32.85 10.39 32.85 10.39 33.61 11.01 34.23 11.77 34.23 12.53 34.23 13.14 33.61 13.14 32.85 13.14 32.85 13.14 24.59 13.14 24.59ZM 21.4 24.59C 21.4 23.83 20.79 23.21 20.03 23.21 19.27 23.21 18.65 23.83 18.65 24.59 18.65 24.59 18.65 32.85 18.65 32.85 18.65 33.61 19.27 34.23 20.03 34.23 20.79 34.23 21.4 33.61 21.4 32.85 21.4 32.85 21.4 24.59 21.4 24.59ZM 29.66 24.59C 29.66 23.83 29.05 23.21 28.29 23.21 27.53 23.21 26.91 23.83 26.91 24.59 26.91 24.59 26.91 32.85 26.91 32.85 26.91 33.61 27.53 34.23 28.29 34.23 29.05 34.23 29.66 33.61 29.66 32.85 29.66 32.85 29.66 24.59 29.66 24.59Z" fill="rgb(253,208,53)"/></svg>